<svg xmlns="http://www.w3.org/2000/svg" viewBox="0 0 43.2 44.1"><g><g><path d="M5.9 2.4h31.4a2.8 2.8 0 012.8 2.8V16h-37V5.1a2.8 2.8 0 012.8-2.7z" fill="#2daa8b"/><path d="M36.9 3.8h.2A4.4 4.4 0 0141.6 8v30.3a4.4 4.4 0 01-4.5 4.2h-31a4.4 4.4 0 01-4.5-4.2V8a4.4 4.4 0 014.5-4.2h4.6" fill="none" stroke="#1a1a1a" stroke-linecap="square" stroke-miterlimit="10" stroke-width="3.2"/><path fill="none" stroke="#1a1a1a" stroke-linecap="square" stroke-miterlimit="10" stroke-width="3.1" d="M17.7 3.8h13.4"/><path fill="none" stroke="#1a1a1a" stroke-linecap="round" stroke-miterlimit="10" stroke-width="3.1" d="M39.3 13.8H3.5"/><rect x="10.8" width="3.1" height="6.9" rx="1.5" fill="#1a1a1a"/><rect x="30.3" width="3.1" height="6.9" rx="1.5" fill="#1a1a1a"/><rect x="8.5" y="20.8" width="3.1" height="3.1" rx=".8" fill="#2daa8b"/><rect x="16.2" y="20.8" width="3.1" height="3.1" rx=".8" fill="#2daa8b"/><rect x="23.9" y="20.8" width="3.1" height="3.1" rx=".8" fill="#2daa8b"/><rect x="31.6" y="20.8" width="3.1" height="3.1" rx=".8" fill="#2daa8b"/><rect x="8.5" y="26.9" width="3.1" height="3.1" rx=".8" fill="#2daa8b"/><rect x="16.2" y="26.9" width="3.1" height="3.1" rx=".8" fill="#2daa8b"/><rect x="23.9" y="26.9" width="3.1" height="3.1" rx=".8" fill="#2daa8b"/><rect x="31.6" y="26.9" width="3.1" height="3.1" rx=".8" fill="#2daa8b"/><rect x="8.5" y="33.1" width="3.1" height="3.1" rx=".8" fill="#2daa8b"/><rect x="16.2" y="33.1" width="3.1" height="3.1" rx=".8" fill="#2daa8b"/><rect x="23.9" y="33.1" width="3.1" height="3.1" rx=".8" fill="#2daa8b"/><rect x="31.6" y="33.1" width="3.1" height="3.1" rx=".8" fill="#2daa8b"/></g></g></svg>