<svg width="34" height="34" viewBox="0 0 34 34" fill="none" xmlns="http://www.w3.org/2000/svg">
<path fill-rule="evenodd" clip-rule="evenodd" d="M27.608 5.44H6.392C6.13952 5.44 5.89737 5.5403 5.71884 5.71884C5.5403 5.89737 5.44 6.13952 5.44 6.392V27.608C5.44 28.1248 5.8752 28.56 6.392 28.56H17.7208V19.8832H14.8376V16.2792H17.7208V13.3824C17.7208 10.3904 19.6248 8.9352 22.2768 8.9352C23.5552 8.9352 24.6568 9.0304 24.9696 9.0712V12.1992H23.12C21.6784 12.1992 21.3384 12.8792 21.3384 13.8856V16.2792H24.9424L24.2216 19.8832H21.352L21.4064 28.56H27.608C27.7342 28.5618 27.8594 28.5385 27.9765 28.4915C28.0936 28.4444 28.2001 28.3746 28.29 28.286C28.3798 28.1974 28.4512 28.0919 28.4999 27.9755C28.5485 27.8591 28.5736 27.7342 28.5736 27.608V6.392C28.5736 6.13952 28.4733 5.89737 28.2948 5.71884C28.1162 5.5403 27.8741 5.44 27.6216 5.44" fill="#3B5998"/>
</svg>
