<svg width="28" height="28" viewBox="0 0 28 28" fill="none" xmlns="http://www.w3.org/2000/svg">
<g clip-path="url(#clip0)">
<path fill-rule="evenodd" clip-rule="evenodd" d="M14 0C6.23636 0 0 6.18198 0 13.8779C0 20.0599 4.07273 25.2326 9.54545 26.9988C10.3091 27.125 10.5636 26.7465 10.5636 26.368C10.5636 25.9895 10.5636 25.1064 10.5636 23.9709C6.61818 24.8541 5.85455 22.0785 5.85455 22.0785C5.21818 20.5645 4.2 20.186 4.2 20.186C2.92727 19.3029 4.32727 19.3029 4.32727 19.3029C5.72727 19.4291 6.49091 20.6907 6.49091 20.6907C7.76364 22.8355 9.8 22.2047 10.5636 21.8262C10.6909 20.943 11.0727 20.3122 11.4545 19.9337C8.4 19.5552 5.09091 18.4198 5.09091 13.1209C5.09091 11.607 5.6 10.3453 6.49091 9.33605C6.36364 9.08372 5.85455 7.69593 6.61818 5.80349C6.61818 5.80349 7.76364 5.425 10.4364 7.19128C11.5818 6.93895 12.7273 6.68663 14 6.68663C15.1455 6.68663 16.4182 6.81279 17.5636 7.19128C20.2364 5.425 21.3818 5.80349 21.3818 5.80349C22.1455 7.69593 21.6364 9.08372 21.5091 9.46221C22.4 10.4715 22.9091 11.7331 22.9091 13.2471C22.9091 18.5459 19.6 19.8076 16.5455 20.0599C17.0545 20.4384 17.4364 21.3215 17.4364 22.5831C17.4364 24.4756 17.4364 25.9895 17.4364 26.368C17.4364 26.7465 17.6909 27.125 18.4545 26.9988C24.0545 25.2326 28 20.0599 28 13.8779C28 6.18198 21.7636 0 14 0Z" fill="#1A1414"/>
</g>
<defs>
<clipPath id="clip0">
<rect width="28" height="27.125" fill="white"/>
</clipPath>
</defs>
</svg>
