<svg width="34" height="34" viewBox="0 0 34 34" fill="none" xmlns="http://www.w3.org/2000/svg">
<path fill-rule="evenodd" clip-rule="evenodd" d="M28.0976 17.272C28.0976 16.4424 28.0296 15.6536 27.8936 14.9056H17V19.3664H23.2288C23.1003 20.0752 22.8291 20.7505 22.4316 21.3514C22.0342 21.9522 21.5188 22.466 20.9168 22.8616V25.7584H24.6432C25.7823 24.6655 26.6786 23.345 27.2737 21.8829C27.8689 20.4208 28.1496 18.8497 28.0976 17.272V17.272Z" fill="#4285F4"/>
<path fill-rule="evenodd" clip-rule="evenodd" d="M17 28.56C19.8166 28.6398 22.5568 27.6372 24.6568 25.7584L20.9168 22.8616C19.7492 23.6073 18.385 23.9863 17 23.9496C15.5583 23.9343 14.1579 23.4666 12.9963 22.6126C11.8348 21.7585 10.9708 20.5612 10.5264 19.1896H6.664V22.1816C7.62546 24.099 9.10144 25.7112 10.9268 26.8376C12.7522 27.9641 14.855 28.5604 17 28.56V28.56Z" fill="#34A853"/>
<path fill-rule="evenodd" clip-rule="evenodd" d="M10.5264 19.2032C10.0515 17.7775 10.0515 16.2362 10.5264 14.8104V11.8184H6.66401C5.85792 13.4267 5.43878 15.201 5.44001 17C5.44001 18.8632 5.88881 20.6312 6.66401 22.1952L10.5264 19.2032V19.2032Z" fill="#FBBC05"/>
<path fill-rule="evenodd" clip-rule="evenodd" d="M17 10.0368C18.643 10.0097 20.2307 10.6301 21.42 11.764L24.7384 8.4456C22.6441 6.48156 19.8709 5.40444 17 5.44C14.8564 5.4383 12.7546 6.03264 10.9294 7.15661C9.10413 8.28058 7.62734 9.88991 6.664 11.8048L10.5264 14.7968C10.9708 13.4253 11.8348 12.2279 12.9963 11.3738C14.1579 10.5198 15.5583 10.0521 17 10.0368V10.0368Z" fill="#EA4335"/>
</svg>
