<svg xmlns="http://www.w3.org/2000/svg" viewBox="0 0 43.2 44.1"><title>ico-calendar</title><g id="レイヤー_2" data-name="レイヤー 2"><g id="レイヤー_1-2" data-name="レイヤー 1"><path d="M5.9,2.4H37.3a2.8,2.8,0,0,1,2.8,2.8V16a0,0,0,0,1,0,0H3.1a0,0,0,0,1,0,0V5.1A2.8,2.8,0,0,1,5.9,2.4Z" style="fill:#2daa8b"/><path d="M36.9,3.8h.2A4.4,4.4,0,0,1,41.6,8V38.3a4.4,4.4,0,0,1-4.5,4.2H6.1a4.4,4.4,0,0,1-4.5-4.2V8A4.4,4.4,0,0,1,6.1,3.8h4.6" style="fill:none;stroke:#1a1a1a;stroke-linecap:square;stroke-miterlimit:10;stroke-width:3.2025630761016823px"/><line x1="17.7" y1="3.8" x2="31.1" y2="3.8" style="fill:none;stroke:#1a1a1a;stroke-linecap:square;stroke-miterlimit:10;stroke-width:3.076923076923077px"/><line x1="39.3" y1="13.8" x2="3.5" y2="13.8" style="fill:none;stroke:#1a1a1a;stroke-linecap:round;stroke-miterlimit:10;stroke-width:3.076923076923077px"/><rect x="10.8" width="3.1" height="6.92" rx="1.5" style="fill:#1a1a1a"/><rect x="30.3" width="3.1" height="6.92" rx="1.5" style="fill:#1a1a1a"/><rect x="8.5" y="20.8" width="3.1" height="3.08" rx="0.8" style="fill:#2daa8b"/><rect x="16.2" y="20.8" width="3.1" height="3.08" rx="0.8" style="fill:#2daa8b"/><rect x="23.9" y="20.8" width="3.1" height="3.08" rx="0.8" style="fill:#2daa8b"/><rect x="31.6" y="20.8" width="3.1" height="3.08" rx="0.8" style="fill:#2daa8b"/><rect x="8.5" y="26.9" width="3.1" height="3.08" rx="0.8" style="fill:#2daa8b"/><rect x="16.2" y="26.9" width="3.1" height="3.08" rx="0.8" style="fill:#2daa8b"/><rect x="23.9" y="26.9" width="3.1" height="3.08" rx="0.8" style="fill:#2daa8b"/><rect x="31.6" y="26.9" width="3.1" height="3.08" rx="0.8" style="fill:#2daa8b"/><rect x="8.5" y="33.1" width="3.1" height="3.08" rx="0.8" style="fill:#2daa8b"/><rect x="16.2" y="33.1" width="3.1" height="3.08" rx="0.8" style="fill:#2daa8b"/><rect x="23.9" y="33.1" width="3.1" height="3.08" rx="0.8" style="fill:#2daa8b"/><rect x="31.6" y="33.1" width="3.1" height="3.08" rx="0.8" style="fill:#2daa8b"/></g></g></svg>