<svg width="25" height="26" viewBox="0 0 25 26" fill="none" xmlns="http://www.w3.org/2000/svg">
<g clip-path="url(#clip0)">
<path d="M3.41435 1.41496H21.5856C22.0154 1.41496 22.4275 1.58889 22.7314 1.89847C23.0353 2.20805 23.206 2.62794 23.206 3.06576V9.4331H1.79398V3.0068C1.80897 2.57928 1.98629 2.17439 2.28856 1.87744C2.59082 1.5805 2.99444 1.41469 3.41435 1.41496V1.41496Z" fill="#2DAA8B"/>
<path d="M21.3542 2.24036H21.4699C22.1356 2.22425 22.781 2.47443 23.2678 2.9373C23.7546 3.40016 24.044 4.03887 24.0741 4.71655V22.5805C24.044 23.2582 23.7546 23.8969 23.2678 24.3597C22.781 24.8226 22.1356 25.0728 21.4699 25.0567H3.5301C2.86442 25.0728 2.21903 24.8226 1.73225 24.3597C1.24546 23.8969 0.956013 23.2582 0.925934 22.5805V4.71655C0.956013 4.03887 1.24546 3.40016 1.73225 2.9373C2.21903 2.47443 2.86442 2.22425 3.5301 2.24036H6.19214" stroke="#1A1A1A" stroke-width="2" stroke-miterlimit="10" stroke-linecap="square"/>
<path d="M10.2431 2.24036H17.9977" stroke="#1A1A1A" stroke-width="2" stroke-miterlimit="10" stroke-linecap="square"/>
<path d="M22.7431 8.13606H2.02548" stroke="#1A1A1A" stroke-width="2" stroke-miterlimit="10" stroke-linecap="round"/>
<path d="M7.17593 0H7.11806C6.63864 0 6.25 0.395939 6.25 0.884354V3.19546C6.25 3.68388 6.63864 4.07982 7.11806 4.07982H7.17593C7.65534 4.07982 8.04398 3.68388 8.04398 3.19546V0.884354C8.04398 0.395939 7.65534 0 7.17593 0Z" fill="#1A1A1A"/>
<path d="M18.4607 0H18.4028C17.9234 0 17.5347 0.395939 17.5347 0.884354V3.19546C17.5347 3.68388 17.9234 4.07982 18.4028 4.07982H18.4607C18.9401 4.07982 19.3287 3.68388 19.3287 3.19546V0.884354C19.3287 0.395939 18.9401 0 18.4607 0Z" fill="#1A1A1A"/>
<path d="M6.24999 12.263H5.38194C5.12625 12.263 4.91898 12.4742 4.91898 12.7347V13.6072C4.91898 13.8677 5.12625 14.0789 5.38194 14.0789H6.24999C6.50568 14.0789 6.71296 13.8677 6.71296 13.6072V12.7347C6.71296 12.4742 6.50568 12.263 6.24999 12.263Z" fill="#2DAA8B"/>
<path d="M10.706 12.263H9.83796C9.58228 12.263 9.375 12.4742 9.375 12.7347V13.6072C9.375 13.8677 9.58228 14.0789 9.83796 14.0789H10.706C10.9617 14.0789 11.169 13.8677 11.169 13.6072V12.7347C11.169 12.4742 10.9617 12.263 10.706 12.263Z" fill="#2DAA8B"/>
<path d="M15.162 12.263H14.294C14.0383 12.263 13.831 12.4742 13.831 12.7347V13.6072C13.831 13.8677 14.0383 14.0789 14.294 14.0789H15.162C15.4177 14.0789 15.625 13.8677 15.625 13.6072V12.7347C15.625 12.4742 15.4177 12.263 15.162 12.263Z" fill="#2DAA8B"/>
<path d="M19.6181 12.263H18.75C18.4943 12.263 18.287 12.4742 18.287 12.7347V13.6072C18.287 13.8677 18.4943 14.0789 18.75 14.0789H19.6181C19.8738 14.0789 20.081 13.8677 20.081 13.6072V12.7347C20.081 12.4742 19.8738 12.263 19.6181 12.263Z" fill="#2DAA8B"/>
<path d="M6.24999 15.8594H5.38194C5.12625 15.8594 4.91898 16.0706 4.91898 16.3311V17.2036C4.91898 17.4641 5.12625 17.6753 5.38194 17.6753H6.24999C6.50568 17.6753 6.71296 17.4641 6.71296 17.2036V16.3311C6.71296 16.0706 6.50568 15.8594 6.24999 15.8594Z" fill="#2DAA8B"/>
<path d="M10.706 15.8594H9.83796C9.58228 15.8594 9.375 16.0706 9.375 16.3311V17.2036C9.375 17.4641 9.58228 17.6753 9.83796 17.6753H10.706C10.9617 17.6753 11.169 17.4641 11.169 17.2036V16.3311C11.169 16.0706 10.9617 15.8594 10.706 15.8594Z" fill="#2DAA8B"/>
<path d="M15.162 15.8594H14.294C14.0383 15.8594 13.831 16.0706 13.831 16.3311V17.2036C13.831 17.4641 14.0383 17.6753 14.294 17.6753H15.162C15.4177 17.6753 15.625 17.4641 15.625 17.2036V16.3311C15.625 16.0706 15.4177 15.8594 15.162 15.8594Z" fill="#2DAA8B"/>
<path d="M19.6181 15.8594H18.75C18.4943 15.8594 18.287 16.0706 18.287 16.3311V17.2036C18.287 17.4641 18.4943 17.6753 18.75 17.6753H19.6181C19.8738 17.6753 20.081 17.4641 20.081 17.2036V16.3311C20.081 16.0706 19.8738 15.8594 19.6181 15.8594Z" fill="#2DAA8B"/>
<path d="M6.24999 19.5147H5.38194C5.12625 19.5147 4.91898 19.7259 4.91898 19.9864V20.859C4.91898 21.1194 5.12625 21.3306 5.38194 21.3306H6.24999C6.50568 21.3306 6.71296 21.1194 6.71296 20.859V19.9864C6.71296 19.7259 6.50568 19.5147 6.24999 19.5147Z" fill="#2DAA8B"/>
<path d="M10.706 19.5147H9.83796C9.58228 19.5147 9.375 19.7259 9.375 19.9864V20.859C9.375 21.1194 9.58228 21.3306 9.83796 21.3306H10.706C10.9617 21.3306 11.169 21.1194 11.169 20.859V19.9864C11.169 19.7259 10.9617 19.5147 10.706 19.5147Z" fill="#2DAA8B"/>
<path d="M15.162 19.5147H14.294C14.0383 19.5147 13.831 19.7259 13.831 19.9864V20.859C13.831 21.1194 14.0383 21.3306 14.294 21.3306H15.162C15.4177 21.3306 15.625 21.1194 15.625 20.859V19.9864C15.625 19.7259 15.4177 19.5147 15.162 19.5147Z" fill="#2DAA8B"/>
<path d="M19.6181 19.5147H18.75C18.4943 19.5147 18.287 19.7259 18.287 19.9864V20.859C18.287 21.1194 18.4943 21.3306 18.75 21.3306H19.6181C19.8738 21.3306 20.081 21.1194 20.081 20.859V19.9864C20.081 19.7259 19.8738 19.5147 19.6181 19.5147Z" fill="#2DAA8B"/>
</g>
<defs>
<clipPath id="clip0">
<rect width="25" height="26" fill="white"/>
</clipPath>
</defs>
</svg>
