<svg width="234" height="155" viewBox="0 0 234 155" fill="none" xmlns="http://www.w3.org/2000/svg">
<g clip-path="url(#clip0)">
<path d="M64.3893 17.8665C64.0752 19.277 63.9181 21.001 63.9181 22.0981C63.604 30.4045 62.5047 55.4803 58.5785 63.7867C56.851 67.3913 54.1812 68.9585 49.4698 68.9585C45.0725 68.9585 40.047 68.6451 35.4926 68.4884L34.7074 61.2791C39.4188 61.906 43.9732 62.2194 47.5852 62.2194C50.098 62.2194 51.6685 61.5925 52.6107 59.3984C55.9087 52.816 57.0081 31.6582 57.0081 22.4115H32.6658C29.5248 47.1739 20.5732 60.182 6.12484 70.2123L-0.157043 65.1972C2.51276 63.7866 6.12484 61.2791 8.63759 58.7715C17.1181 51.092 23.4 40.2781 25.7557 22.4115H11.4644C8.0094 22.4115 4.55437 22.4115 1.57047 22.725V15.359C4.55437 15.6724 8.16645 15.8291 11.4644 15.8291H26.698C26.855 13.0081 27.0121 10.1871 27.0121 7.05258C27.0121 5.17189 26.698 2.03741 26.3839 -0.156723H34.5503C34.2362 1.88069 34.0792 4.85844 34.0792 6.89586C33.9222 10.0303 33.7651 12.8514 33.6081 15.8291H54.1812C56.5369 15.8291 58.2644 15.6724 59.6779 15.359L64.3893 17.8665Z" fill="black"/>
<path d="M91.7155 65.6673C92.3436 64.2568 92.6577 63.1598 92.6577 61.4358V10.9707C92.6577 8.61982 92.1866 4.70172 92.0295 2.97775H100.51C100.196 5.17189 99.8819 8.46309 99.8819 10.9707V60.8089C116.686 56.5773 137.102 44.9798 148.095 30.8746L152.021 36.9869C140.557 51.092 122.34 61.906 100.51 68.3316C99.5678 68.6451 98.1544 68.9585 96.741 69.8989L91.7155 65.6673Z" fill="black"/>
<path d="M37.2201 133.529C50.5691 125.222 61.0913 112.371 66.1168 101.871L70.2 109.237C64.2322 119.894 54.1812 131.648 41.1463 139.798C32.5087 145.283 21.6725 150.612 7.22416 153.276L2.6698 146.223C17.7463 143.873 29.0537 138.701 37.2201 133.529ZM32.1946 106.259L26.698 111.744C22.4577 107.199 11.6215 98.1092 5.18255 93.7209L10.051 88.3923C16.1758 92.4671 27.3262 101.4 32.1946 106.259Z" fill="black"/>
<path d="M130.192 131.962C122.34 140.895 111.503 149.358 96.2698 155L89.9879 149.515C105.064 144.97 116.372 136.663 124.224 128.043C117.471 123.655 102.866 113.938 97.9973 111.274L102.552 106.259C107.577 108.923 122.025 118.327 128.779 122.558C134.118 115.192 138.201 106.416 139.772 99.5197H110.404C104.907 107.199 97.2121 115.506 87.6322 122.088L81.8215 117.543C96.7409 108.453 105.693 95.4449 109.619 87.6087C110.561 86.0415 111.817 82.907 112.446 80.8696L120.141 83.3771C118.728 85.5713 117.157 88.3923 116.372 90.1163C115.901 91.2133 115.272 92.1537 114.487 93.2508H138.044C140.4 93.2508 142.442 92.9373 143.698 92.4671L145.111 93.4075C143.384 89.9595 140.557 84.9444 138.201 81.6532L142.756 79.6158C144.954 82.7502 148.095 87.9221 149.823 91.3701L145.268 93.4075L149.352 95.7583C148.723 97.0121 147.781 98.8928 147.31 100.303C145.111 107.826 140.714 117.543 134.589 126.006L130.192 131.962ZM152.336 76.1678C154.534 79.3023 157.989 84.6309 159.56 87.9221L155.005 89.9596C153.121 86.1982 150.294 81.3397 147.781 78.2053L152.336 76.1678Z" fill="black"/>
<path d="M184.52 52.3848H213.611C215.01 52.3848 216.268 53.5014 216.268 55.0367V65.086H182.003V55.0367C182.003 53.5014 183.121 52.3848 184.52 52.3848Z" fill="#2DAA8B"/>
<path d="M213.331 53.641H213.471C215.709 53.641 217.527 55.3159 217.667 57.549V85.6032C217.527 87.8363 215.709 89.5112 213.471 89.5112H184.8C182.562 89.5112 180.744 87.8363 180.604 85.6032V57.549C180.744 55.3159 182.562 53.641 184.8 53.641H188.996" stroke="#1A1A1A" stroke-width="2" stroke-miterlimit="10" stroke-linecap="square"/>
<path d="M195.569 53.641H207.877" stroke="#1A1A1A" stroke-width="2" stroke-miterlimit="10" stroke-linecap="square"/>
<path d="M215.569 62.9924H182.422" stroke="#1A1A1A" stroke-width="2" stroke-miterlimit="10" stroke-linecap="round"/>
<path d="M190.534 50.1517C191.373 50.1517 192.073 50.7099 192.073 51.5474V55.1763C192.073 55.8742 191.513 56.572 190.674 56.572H190.534C189.835 56.572 189.135 56.0137 189.135 55.1763V51.5474C189.135 50.8495 189.695 50.1517 190.534 50.1517Z" fill="#1A1A1A"/>
<path d="M208.576 50.1517C209.415 50.1517 210.115 50.7099 210.115 51.5474V55.1763C210.115 55.8742 209.555 56.572 208.716 56.572H208.576C207.877 56.572 207.177 56.0137 207.177 55.1763V51.5474C207.177 50.8495 207.877 50.1517 208.576 50.1517Z" fill="#1A1A1A"/>
<path d="M187.737 69.4127H189.135C189.555 69.4127 189.835 69.6919 189.835 70.1106V71.5063C189.835 71.925 189.555 72.2042 189.135 72.2042H187.737C187.317 72.2042 187.038 71.925 187.038 71.5063V70.1106C187.038 69.6919 187.317 69.4127 187.737 69.4127Z" fill="#2DAA8B"/>
<path d="M194.87 69.4127H196.268C196.688 69.4127 196.968 69.6919 196.968 70.1106V71.5063C196.968 71.925 196.688 72.2042 196.268 72.2042H194.87C194.45 72.2042 194.17 71.925 194.17 71.5063V70.1106C194.17 69.6919 194.45 69.4127 194.87 69.4127Z" fill="#2DAA8B"/>
<path d="M202.003 69.4127H203.401C203.821 69.4127 204.101 69.6919 204.101 70.1106V71.5063C204.101 71.925 203.821 72.2042 203.401 72.2042H202.003C201.583 72.2042 201.303 71.925 201.303 71.5063V70.1106C201.303 69.6919 201.583 69.4127 202.003 69.4127Z" fill="#2DAA8B"/>
<path d="M209.136 69.4127H210.534C210.954 69.4127 211.234 69.6919 211.234 70.1106V71.5063C211.234 71.925 210.954 72.2042 210.534 72.2042H209.136C208.716 72.2042 208.436 71.925 208.436 71.5063V70.1106C208.436 69.6919 208.716 69.4127 209.136 69.4127Z" fill="#2DAA8B"/>
<path d="M187.737 74.9957H189.135C189.555 74.9957 189.835 75.2748 189.835 75.6935V77.0892C189.835 77.508 189.555 77.7871 189.135 77.7871H187.737C187.317 77.7871 187.038 77.508 187.038 77.0892V75.6935C187.038 75.4144 187.317 74.9957 187.737 74.9957Z" fill="#2DAA8B"/>
<path d="M194.87 74.9957H196.268C196.688 74.9957 196.968 75.2748 196.968 75.6935V77.0892C196.968 77.508 196.688 77.7871 196.268 77.7871H194.87C194.45 77.7871 194.17 77.508 194.17 77.0892V75.6935C194.17 75.4144 194.45 74.9957 194.87 74.9957Z" fill="#2DAA8B"/>
<path d="M202.003 74.9957H203.401C203.821 74.9957 204.101 75.2748 204.101 75.6935V77.0892C204.101 77.508 203.821 77.7871 203.401 77.7871H202.003C201.583 77.7871 201.303 77.508 201.303 77.0892V75.6935C201.303 75.4144 201.583 74.9957 202.003 74.9957Z" fill="#2DAA8B"/>
<path d="M209.136 74.9957H210.534C210.954 74.9957 211.234 75.2748 211.234 75.6935V77.0892C211.234 77.508 210.954 77.7871 210.534 77.7871H209.136C208.716 77.7871 208.436 77.508 208.436 77.0892V75.6935C208.436 75.4144 208.716 74.9957 209.136 74.9957Z" fill="#2DAA8B"/>
<path d="M187.737 80.7181H189.135C189.555 80.7181 189.835 80.9973 189.835 81.416V82.8117C189.835 83.2304 189.555 83.5096 189.135 83.5096H187.737C187.317 83.5096 187.038 83.2304 187.038 82.8117V81.416C187.038 81.1368 187.317 80.7181 187.737 80.7181Z" fill="#2DAA8B"/>
<path d="M194.87 80.7181H196.268C196.688 80.7181 196.968 80.9973 196.968 81.416V82.8117C196.968 83.2304 196.688 83.5096 196.268 83.5096H194.87C194.45 83.5096 194.17 83.2304 194.17 82.8117V81.416C194.17 81.1368 194.45 80.7181 194.87 80.7181Z" fill="#2DAA8B"/>
<path d="M202.003 80.7181H203.401C203.821 80.7181 204.101 80.9973 204.101 81.416V82.8117C204.101 83.2304 203.821 83.5096 203.401 83.5096H202.003C201.583 83.5096 201.303 83.2304 201.303 82.8117V81.416C201.303 81.1368 201.583 80.7181 202.003 80.7181Z" fill="#2DAA8B"/>
<path d="M209.136 80.7181H210.534C210.954 80.7181 211.234 80.9973 211.234 81.416V82.8117C211.234 83.2304 210.954 83.5096 210.534 83.5096H209.136C208.716 83.5096 208.436 83.2304 208.436 82.8117V81.416C208.436 81.1368 208.716 80.7181 209.136 80.7181Z" fill="#2DAA8B"/>
<path d="M234.157 111.431H166.156V118.953H234.157V111.431Z" fill="black"/>
</g>
<defs>
<clipPath id="clip0">
<rect width="234" height="155" fill="white"/>
</clipPath>
</defs>
</svg>
